<svg width="400" height="400" viewBox="0 0 400 400" fill="none" xmlns="http://www.w3.org/2000/svg">
<rect x="212" y="221" width="25" height="25" fill="#D2FEE1"/>
<rect x="237" y="221" width="25" height="25" fill="#018E63"/>
<rect x="162" y="221" width="25" height="25" fill="#E3D8FE"/>
<rect x="137" y="221" width="25" height="25" fill="#D4C4FC"/>
<rect x="155" y="164" width="63.6396" height="63.6396" transform="rotate(-45 155 164)" fill="#D2FEE1"/>
<rect x="155" y="164" width="63.6396" height="63.6396" transform="rotate(-45 155 164)" fill="#00DD9A"/>
<circle cx="200" cy="119" r="63.6396" transform="rotate(-45 200 119)" fill="#018E63"/>
<path fill-rule="evenodd" clip-rule="evenodd" d="M155 164C179.853 188.853 220.147 188.853 245 164L200 119L155 164Z" fill="#02BB82"/>
<path fill-rule="evenodd" clip-rule="evenodd" d="M155 164C179.853 188.853 220.147 188.853 245 164L200 119L155 164Z" fill="#02BB82"/>
<rect x="187" y="221" width="25" height="25" fill="#02BB82"/>
<path d="M102.995 304.43V329H97.01V314.265L91.515 329H86.685L81.155 314.23V329H75.17V304.43H82.24L89.135 321.44L95.96 304.43H102.995ZM106.109 319.2C106.109 317.193 106.482 315.432 107.229 313.915C107.999 312.398 109.037 311.232 110.344 310.415C111.651 309.598 113.109 309.19 114.719 309.19C116.096 309.19 117.297 309.47 118.324 310.03C119.374 310.59 120.179 311.325 120.739 312.235V309.47H126.724V329H120.739V326.235C120.156 327.145 119.339 327.88 118.289 328.44C117.262 329 116.061 329.28 114.684 329.28C113.097 329.28 111.651 328.872 110.344 328.055C109.037 327.215 107.999 326.037 107.229 324.52C106.482 322.98 106.109 321.207 106.109 319.2ZM120.739 319.235C120.739 317.742 120.319 316.563 119.479 315.7C118.662 314.837 117.659 314.405 116.469 314.405C115.279 314.405 114.264 314.837 113.424 315.7C112.607 316.54 112.199 317.707 112.199 319.2C112.199 320.693 112.607 321.883 113.424 322.77C114.264 323.633 115.279 324.065 116.469 324.065C117.659 324.065 118.662 323.633 119.479 322.77C120.319 321.907 120.739 320.728 120.739 319.235ZM142.954 309.26C145.24 309.26 147.06 310.007 148.414 311.5C149.79 312.97 150.479 315 150.479 317.59V329H144.529V318.395C144.529 317.088 144.19 316.073 143.514 315.35C142.837 314.627 141.927 314.265 140.784 314.265C139.64 314.265 138.73 314.627 138.054 315.35C137.377 316.073 137.039 317.088 137.039 318.395V329H131.054V309.47H137.039V312.06C137.645 311.197 138.462 310.52 139.489 310.03C140.515 309.517 141.67 309.26 142.954 309.26ZM153.448 319.2C153.448 317.193 153.821 315.432 154.568 313.915C155.338 312.398 156.376 311.232 157.683 310.415C158.989 309.598 160.448 309.19 162.058 309.19C163.434 309.19 164.636 309.47 165.663 310.03C166.713 310.59 167.518 311.325 168.078 312.235V309.47H174.063V329H168.078V326.235C167.494 327.145 166.678 327.88 165.628 328.44C164.601 329 163.399 329.28 162.023 329.28C160.436 329.28 158.989 328.872 157.683 328.055C156.376 327.215 155.338 326.037 154.568 324.52C153.821 322.98 153.448 321.207 153.448 319.2ZM168.078 319.235C168.078 317.742 167.658 316.563 166.818 315.7C166.001 314.837 164.998 314.405 163.808 314.405C162.618 314.405 161.603 314.837 160.763 315.7C159.946 316.54 159.538 317.707 159.538 319.2C159.538 320.693 159.946 321.883 160.763 322.77C161.603 323.633 162.618 324.065 163.808 324.065C164.998 324.065 166.001 323.633 166.818 322.77C167.658 321.907 168.078 320.728 168.078 319.235ZM185.813 309.19C187.189 309.19 188.391 309.47 189.418 310.03C190.468 310.59 191.273 311.325 191.833 312.235V309.47H197.818V328.965C197.818 330.762 197.456 332.383 196.733 333.83C196.033 335.3 194.948 336.467 193.478 337.33C192.031 338.193 190.223 338.625 188.053 338.625C185.159 338.625 182.814 337.937 181.018 336.56C179.221 335.207 178.194 333.363 177.938 331.03H183.853C184.039 331.777 184.483 332.36 185.183 332.78C185.883 333.223 186.746 333.445 187.773 333.445C189.009 333.445 189.989 333.083 190.713 332.36C191.459 331.66 191.833 330.528 191.833 328.965V326.2C191.249 327.11 190.444 327.857 189.418 328.44C188.391 329 187.189 329.28 185.813 329.28C184.203 329.28 182.744 328.872 181.438 328.055C180.131 327.215 179.093 326.037 178.323 324.52C177.576 322.98 177.203 321.207 177.203 319.2C177.203 317.193 177.576 315.432 178.323 313.915C179.093 312.398 180.131 311.232 181.438 310.415C182.744 309.598 184.203 309.19 185.813 309.19ZM191.833 319.235C191.833 317.742 191.413 316.563 190.573 315.7C189.756 314.837 188.753 314.405 187.563 314.405C186.373 314.405 185.358 314.837 184.518 315.7C183.701 316.54 183.293 317.707 183.293 319.2C183.293 320.693 183.701 321.883 184.518 322.77C185.358 323.633 186.373 324.065 187.563 324.065C188.753 324.065 189.756 323.633 190.573 322.77C191.413 321.907 191.833 320.728 191.833 319.235ZM220.558 318.92C220.558 319.48 220.523 320.063 220.453 320.67H206.908C207.001 321.883 207.386 322.817 208.063 323.47C208.763 324.1 209.614 324.415 210.618 324.415C212.111 324.415 213.149 323.785 213.733 322.525H220.103C219.776 323.808 219.181 324.963 218.318 325.99C217.478 327.017 216.416 327.822 215.133 328.405C213.849 328.988 212.414 329.28 210.828 329.28C208.914 329.28 207.211 328.872 205.718 328.055C204.224 327.238 203.058 326.072 202.218 324.555C201.378 323.038 200.958 321.265 200.958 319.235C200.958 317.205 201.366 315.432 202.183 313.915C203.023 312.398 204.189 311.232 205.683 310.415C207.176 309.598 208.891 309.19 210.828 309.19C212.718 309.19 214.398 309.587 215.868 310.38C217.338 311.173 218.481 312.305 219.298 313.775C220.138 315.245 220.558 316.96 220.558 318.92ZM214.433 317.345C214.433 316.318 214.083 315.502 213.383 314.895C212.683 314.288 211.808 313.985 210.758 313.985C209.754 313.985 208.903 314.277 208.203 314.86C207.526 315.443 207.106 316.272 206.943 317.345H214.433ZM230.117 316.68C230.117 314.253 230.642 312.095 231.692 310.205C232.742 308.292 234.2 306.81 236.067 305.76C237.957 304.687 240.092 304.15 242.472 304.15C245.389 304.15 247.885 304.92 249.962 306.46C252.039 308 253.427 310.1 254.127 312.76H247.547C247.057 311.733 246.357 310.952 245.447 310.415C244.56 309.878 243.545 309.61 242.402 309.61C240.559 309.61 239.065 310.252 237.922 311.535C236.779 312.818 236.207 314.533 236.207 316.68C236.207 318.827 236.779 320.542 237.922 321.825C239.065 323.108 240.559 323.75 242.402 323.75C243.545 323.75 244.56 323.482 245.447 322.945C246.357 322.408 247.057 321.627 247.547 320.6H254.127C253.427 323.26 252.039 325.36 249.962 326.9C247.885 328.417 245.389 329.175 242.472 329.175C240.092 329.175 237.957 328.65 236.067 327.6C234.2 326.527 232.742 325.045 231.692 323.155C230.642 321.265 230.117 319.107 230.117 316.68ZM266.682 329.28C264.769 329.28 263.042 328.872 261.502 328.055C259.985 327.238 258.784 326.072 257.897 324.555C257.034 323.038 256.602 321.265 256.602 319.235C256.602 317.228 257.045 315.467 257.932 313.95C258.819 312.41 260.032 311.232 261.572 310.415C263.112 309.598 264.839 309.19 266.752 309.19C268.665 309.19 270.392 309.598 271.932 310.415C273.472 311.232 274.685 312.41 275.572 313.95C276.459 315.467 276.902 317.228 276.902 319.235C276.902 321.242 276.447 323.015 275.537 324.555C274.65 326.072 273.425 327.238 271.862 328.055C270.322 328.872 268.595 329.28 266.682 329.28ZM266.682 324.1C267.825 324.1 268.794 323.68 269.587 322.84C270.404 322 270.812 320.798 270.812 319.235C270.812 317.672 270.415 316.47 269.622 315.63C268.852 314.79 267.895 314.37 266.752 314.37C265.585 314.37 264.617 314.79 263.847 315.63C263.077 316.447 262.692 317.648 262.692 319.235C262.692 320.798 263.065 322 263.812 322.84C264.582 323.68 265.539 324.1 266.682 324.1ZM286.062 303.1V329H280.077V303.1H286.062ZM299.289 329.28C297.376 329.28 295.649 328.872 294.109 328.055C292.593 327.238 291.391 326.072 290.504 324.555C289.641 323.038 289.209 321.265 289.209 319.235C289.209 317.228 289.653 315.467 290.539 313.95C291.426 312.41 292.639 311.232 294.179 310.415C295.719 309.598 297.446 309.19 299.359 309.19C301.273 309.19 302.999 309.598 304.539 310.415C306.079 311.232 307.293 312.41 308.179 313.95C309.066 315.467 309.509 317.228 309.509 319.235C309.509 321.242 309.054 323.015 308.144 324.555C307.258 326.072 306.033 327.238 304.469 328.055C302.929 328.872 301.203 329.28 299.289 329.28ZM299.289 324.1C300.433 324.1 301.401 323.68 302.194 322.84C303.011 322 303.419 320.798 303.419 319.235C303.419 317.672 303.023 316.47 302.229 315.63C301.459 314.79 300.503 314.37 299.359 314.37C298.193 314.37 297.224 314.79 296.454 315.63C295.684 316.447 295.299 317.648 295.299 319.235C295.299 320.798 295.673 322 296.419 322.84C297.189 323.68 298.146 324.1 299.289 324.1ZM318.67 312.725C319.37 311.652 320.245 310.812 321.295 310.205C322.345 309.575 323.511 309.26 324.795 309.26V315.595H323.15C321.656 315.595 320.536 315.922 319.79 316.575C319.043 317.205 318.67 318.325 318.67 319.935V329H312.685V309.47H318.67V312.725Z" fill="#4B21EE"/>
</svg>
